<svg aria-roledescription="er" role="graphics-document document" viewBox="0 0 406.59375 765" style="max-width: 406.594px; background-color: white;" xmlns:xlink="http://www.w3.org/1999/xlink" xmlns="http://www.w3.org/2000/svg" width="100%" id="my-svg"><style>#my-svg{font-family:"trebuchet ms",verdana,arial,sans-serif;font-size:16px;fill:#333;}#my-svg .error-icon{fill:#552222;}#my-svg .error-text{fill:#552222;stroke:#552222;}#my-svg .edge-thickness-normal{stroke-width:2px;}#my-svg .edge-thickness-thick{stroke-width:3.5px;}#my-svg .edge-pattern-solid{stroke-dasharray:0;}#my-svg .edge-pattern-dashed{stroke-dasharray:3;}#my-svg .edge-pattern-dotted{stroke-dasharray:2;}#my-svg .marker{fill:#333333;stroke:#333333;}#my-svg .marker.cross{stroke:#333333;}#my-svg svg{font-family:"trebuchet ms",verdana,arial,sans-serif;font-size:16px;}#my-svg .entityBox{fill:#ECECFF;stroke:#9370DB;}#my-svg .attributeBoxOdd{fill:#ffffff;stroke:#9370DB;}#my-svg .attributeBoxEven{fill:#f2f2f2;stroke:#9370DB;}#my-svg .relationshipLabelBox{fill:hsl(80, 100%, 96.2745098039%);opacity:0.7;background-color:hsl(80, 100%, 96.2745098039%);}#my-svg .relationshipLabelBox rect{opacity:0.5;}#my-svg .relationshipLine{stroke:#333333;}#my-svg .entityTitleText{text-anchor:middle;font-size:18px;fill:#333;}#my-svg #MD_PARENT_START{fill:#f5f5f5!important;stroke:#333333!important;stroke-width:1;}#my-svg #MD_PARENT_END{fill:#f5f5f5!important;stroke:#333333!important;stroke-width:1;}#my-svg :root{--mermaid-font-family:"trebuchet ms",verdana,arial,sans-serif;}</style><g/><defs><marker orient="auto" markerHeight="240" markerWidth="190" refY="7" refX="0" id="MD_PARENT_START"><path d="M 18,7 L9,13 L1,7 L9,1 Z"/></marker></defs><defs><marker orient="auto" markerHeight="28" markerWidth="20" refY="7" refX="19" id="MD_PARENT_END"><path d="M 18,7 L9,13 L1,7 L9,1 Z"/></marker></defs><defs><marker orient="auto" markerHeight="18" markerWidth="18" refY="9" refX="0" id="ONLY_ONE_START"><path d="M9,0 L9,18 M15,0 L15,18" fill="none" stroke="gray"/></marker></defs><defs><marker orient="auto" markerHeight="18" markerWidth="18" refY="9" refX="18" id="ONLY_ONE_END"><path d="M3,0 L3,18 M9,0 L9,18" fill="none" stroke="gray"/></marker></defs><defs><marker orient="auto" markerHeight="18" markerWidth="30" refY="9" refX="0" id="ZERO_OR_ONE_START"><circle r="6" cy="9" cx="21" fill="white" stroke="gray"/><path d="M9,0 L9,18" fill="none" stroke="gray"/></marker></defs><defs><marker orient="auto" markerHeight="18" markerWidth="30" refY="9" refX="30" id="ZERO_OR_ONE_END"><circle r="6" cy="9" cx="9" fill="white" stroke="gray"/><path d="M21,0 L21,18" fill="none" stroke="gray"/></marker></defs><defs><marker orient="auto" markerHeight="36" markerWidth="45" refY="18" refX="18" id="ONE_OR_MORE_START"><path d="M0,18 Q 18,0 36,18 Q 18,36 0,18 M42,9 L42,27" fill="none" stroke="gray"/></marker></defs><defs><marker orient="auto" markerHeight="36" markerWidth="45" refY="18" refX="27" id="ONE_OR_MORE_END"><path d="M3,9 L3,27 M9,18 Q27,0 45,18 Q27,36 9,18" fill="none" stroke="gray"/></marker></defs><defs><marker orient="auto" markerHeight="36" markerWidth="57" refY="18" refX="18" id="ZERO_OR_MORE_START"><circle r="6" cy="18" cx="48" fill="white" stroke="gray"/><path d="M0,18 Q18,0 36,18 Q18,36 0,18" fill="none" stroke="gray"/></marker></defs><defs><marker orient="auto" markerHeight="36" markerWidth="57" refY="18" refX="39" id="ZERO_OR_MORE_END"><circle r="6" cy="18" cx="9" fill="white" stroke="gray"/><path d="M21,18 Q39,0 57,18 Q39,36 21,18" fill="none" stroke="gray"/></marker></defs><path style="stroke: gray; fill: none;" marker-start="url(#ONLY_ONE_START)" marker-end="url(#ZERO_OR_ONE_END)" d="M197.30859375,95L197.30859375,103.33333333333333C197.30859375,111.66666666666667,197.30859375,128.33333333333334,197.30859375,145C197.30859375,161.66666666666666,197.30859375,178.33333333333334,197.30859375,186.66666666666666L197.30859375,195" class="er relationshipLine"/><path style="stroke: gray; fill: none;" marker-start="url(#ONLY_ONE_START)" marker-end="url(#ZERO_OR_MORE_END)" d="M150.09375,263L138.521484375,271.3333333333333C126.94921875,279.6666666666667,103.8046875,296.3333333333333,92.232421875,313C80.66015625,329.6666666666667,80.66015625,346.3333333333333,80.66015625,354.6666666666667L80.66015625,363" class="er relationshipLine"/><path style="stroke: gray; fill: none;" marker-start="url(#ONLY_ONE_START)" marker-end="url(#ZERO_OR_MORE_END)" d="M244.5234375,263L256.095703125,271.3333333333333C267.66796875,279.6666666666667,290.8125,296.3333333333333,302.384765625,313C313.95703125,329.6666666666667,313.95703125,346.3333333333333,313.95703125,354.6666666666667L313.95703125,363" class="er relationshipLine"/><path style="stroke: gray; fill: none;" marker-start="url(#ONLY_ONE_START)" marker-end="url(#ZERO_OR_MORE_END)" d="M80.66015625,409L80.66015625,417.3333333333333C80.66015625,425.6666666666667,80.66015625,442.3333333333333,80.66015625,459C80.66015625,475.6666666666667,80.66015625,492.3333333333333,80.66015625,500.6666666666667L80.66015625,509" class="er relationshipLine"/><path style="stroke: gray; fill: none;" marker-start="url(#ONLY_ONE_START)" marker-end="url(#ONLY_ONE_END)" d="M313.95703125,409L313.95703125,417.3333333333333C313.95703125,425.6666666666667,313.95703125,442.3333333333333,313.95703125,460.8333333333333C313.95703125,479.3333333333333,313.95703125,499.6666666666667,313.95703125,509.8333333333333L313.95703125,520" class="er relationshipLine"/><path style="stroke: gray; fill: none;" marker-start="url(#ZERO_OR_ONE_START)" marker-end="url(#ONLY_ONE_END)" d="M80.66015625,577L80.66015625,585.3333333333334C80.66015625,593.6666666666666,80.66015625,610.3333333333334,92.232421875,627C103.8046875,643.6666666666666,126.94921875,660.3333333333334,138.521484375,668.6666666666666L150.09375,677" class="er relationshipLine"/><path style="stroke: gray; fill: none;" marker-start="url(#ZERO_OR_ONE_START)" marker-end="url(#ONLY_ONE_END)" d="M313.95703125,566L313.95703125,576.1666666666666C313.95703125,586.3333333333334,313.95703125,606.6666666666666,302.384765625,625.1666666666666C290.8125,643.6666666666666,267.66796875,660.3333333333334,256.095703125,668.6666666666666L244.5234375,677" class="er relationshipLine"/><g transform="translate(147.30859375,20 )" id="entity-Server-08cd9ada-0445-5cf2-ab70-3380cc63202d"><rect height="75" width="100" y="0" x="0" class="er entityBox"/><text style="dominant-baseline: middle; text-anchor: middle; font-size: 12px;" transform="translate(50,37.5)" y="0" x="0" id="text-entity-Server-08cd9ada-0445-5cf2-ab70-3380cc63202d" class="er entityLabel">Server</text></g><g transform="translate(118.421875,195 )" id="entity-Manager-de48ffad-5cb1-5c3e-8aa8-7c19dbb2ca5e"><rect height="68" width="157.7734375" y="0" x="0" class="er entityBox"/><text style="dominant-baseline: middle; text-anchor: middle; font-size: 12px;" transform="translate(78.88671875,12)" y="0" x="0" id="text-entity-Manager-de48ffad-5cb1-5c3e-8aa8-7c19dbb2ca5e" class="er entityLabel">Manager</text><rect height="22" width="59.8359375" y="24" x="0" class="er attributeBoxOdd"/><text style="dominant-baseline: middle; font-size: 10.2px;" transform="translate(5,35)" y="0" x="0" id="text-entity-Manager-de48ffad-5cb1-5c3e-8aa8-7c19dbb2ca5e-attr-1-type" class="er entityLabel">Template[]</text><rect height="22" width="97.9375" y="24" x="59.8359375" class="er attributeBoxOdd"/><text style="dominant-baseline: middle; font-size: 10.2px;" transform="translate(64.8359375,35)" y="0" x="0" id="text-entity-Manager-de48ffad-5cb1-5c3e-8aa8-7c19dbb2ca5e-attr-1-name" class="er entityLabel">templateCollection</text><rect height="22" width="59.8359375" y="46" x="0" class="er attributeBoxEven"/><text style="dominant-baseline: middle; font-size: 10.2px;" transform="translate(5,57)" y="0" x="0" id="text-entity-Manager-de48ffad-5cb1-5c3e-8aa8-7c19dbb2ca5e-attr-2-type" class="er entityLabel">HashPool[]</text><rect height="22" width="97.9375" y="46" x="59.8359375" class="er attributeBoxEven"/><text style="dominant-baseline: middle; font-size: 10.2px;" transform="translate(64.8359375,57)" y="0" x="0" id="text-entity-Manager-de48ffad-5cb1-5c3e-8aa8-7c19dbb2ca5e-attr-2-name" class="er entityLabel">poolCollection</text></g><g transform="translate(20,363 )" id="entity-HashPool-24cd55fc-7561-5311-99b6-e8e768a8fea8"><rect height="46" width="121.3203125" y="0" x="0" class="er entityBox"/><text style="dominant-baseline: middle; text-anchor: middle; font-size: 12px;" transform="translate(60.66015625,12)" y="0" x="0" id="text-entity-HashPool-24cd55fc-7561-5311-99b6-e8e768a8fea8" class="er entityLabel">HashPool</text><rect height="22" width="70.140625" y="24" x="0" class="er attributeBoxOdd"/><text style="dominant-baseline: middle; font-size: 10.2px;" transform="translate(5,35)" y="0" x="0" id="text-entity-HashPool-24cd55fc-7561-5311-99b6-e8e768a8fea8-attr-1-type" class="er entityLabel">TestDatabase</text><rect height="22" width="51.1796875" y="24" x="70.140625" class="er attributeBoxOdd"/><text style="dominant-baseline: middle; font-size: 10.2px;" transform="translate(75.140625,35)" y="0" x="0" id="text-entity-HashPool-24cd55fc-7561-5311-99b6-e8e768a8fea8-attr-1-name" class="er entityLabel">database</text></g><g transform="translate(241.3203125,363 )" id="entity-Template-e6e4e8a9-60c7-5e73-91ef-9bcd47c7444b"><rect height="46" width="145.2734375" y="0" x="0" class="er entityBox"/><text style="dominant-baseline: middle; text-anchor: middle; font-size: 12px;" transform="translate(72.63671875,12)" y="0" x="0" id="text-entity-Template-e6e4e8a9-60c7-5e73-91ef-9bcd47c7444b" class="er entityLabel">Template</text><rect height="22" width="94.09375" y="24" x="0" class="er attributeBoxOdd"/><text style="dominant-baseline: middle; font-size: 10.2px;" transform="translate(5,35)" y="0" x="0" id="text-entity-Template-e6e4e8a9-60c7-5e73-91ef-9bcd47c7444b-attr-1-type" class="er entityLabel">TemplateDatabase</text><rect height="22" width="51.1796875" y="24" x="94.09375" class="er attributeBoxOdd"/><text style="dominant-baseline: middle; font-size: 10.2px;" transform="translate(99.09375,35)" y="0" x="0" id="text-entity-Template-e6e4e8a9-60c7-5e73-91ef-9bcd47c7444b-attr-1-name" class="er entityLabel">database</text></g><g transform="translate(29.19140625,509 )" id="entity-TestDatabase-f1285d1d-90f2-5085-856a-0578b46db12c"><rect height="68" width="102.9375" y="0" x="0" class="er entityBox"/><text style="dominant-baseline: middle; text-anchor: middle; font-size: 12px;" transform="translate(51.46875,12)" y="0" x="0" id="text-entity-TestDatabase-f1285d1d-90f2-5085-856a-0578b46db12c" class="er entityLabel">TestDatabase</text><rect height="22" width="51.7578125" y="24" x="0" class="er attributeBoxOdd"/><text style="dominant-baseline: middle; font-size: 10.2px;" transform="translate(5,35)" y="0" x="0" id="text-entity-TestDatabase-f1285d1d-90f2-5085-856a-0578b46db12c-attr-1-type" class="er entityLabel">int</text><rect height="22" width="51.1796875" y="24" x="51.7578125" class="er attributeBoxOdd"/><text style="dominant-baseline: middle; font-size: 10.2px;" transform="translate(56.7578125,35)" y="0" x="0" id="text-entity-TestDatabase-f1285d1d-90f2-5085-856a-0578b46db12c-attr-1-name" class="er entityLabel">ID</text><rect height="22" width="51.7578125" y="46" x="0" class="er attributeBoxEven"/><text style="dominant-baseline: middle; font-size: 10.2px;" transform="translate(5,57)" y="0" x="0" id="text-entity-TestDatabase-f1285d1d-90f2-5085-856a-0578b46db12c-attr-2-type" class="er entityLabel">Database</text><rect height="22" width="51.1796875" y="46" x="51.7578125" class="er attributeBoxEven"/><text style="dominant-baseline: middle; font-size: 10.2px;" transform="translate(56.7578125,57)" y="0" x="0" id="text-entity-TestDatabase-f1285d1d-90f2-5085-856a-0578b46db12c-attr-2-name" class="er entityLabel">database</text></g><g transform="translate(249.4921875,520 )" id="entity-TemplateDatabase-06ab1004-657b-579c-b2a5-cd64ad9954ba"><rect height="46" width="128.9296875" y="0" x="0" class="er entityBox"/><text style="dominant-baseline: middle; text-anchor: middle; font-size: 12px;" transform="translate(64.46484375,12)" y="0" x="0" id="text-entity-TemplateDatabase-06ab1004-657b-579c-b2a5-cd64ad9954ba" class="er entityLabel">TemplateDatabase</text><rect height="22" width="64.75390625" y="24" x="0" class="er attributeBoxOdd"/><text style="dominant-baseline: middle; font-size: 10.2px;" transform="translate(5,35)" y="0" x="0" id="text-entity-TemplateDatabase-06ab1004-657b-579c-b2a5-cd64ad9954ba-attr-1-type" class="er entityLabel">Database</text><rect height="22" width="64.17578125" y="24" x="64.75390625" class="er attributeBoxOdd"/><text style="dominant-baseline: middle; font-size: 10.2px;" transform="translate(69.75390625,35)" y="0" x="0" id="text-entity-TemplateDatabase-06ab1004-657b-579c-b2a5-cd64ad9954ba-attr-1-name" class="er entityLabel">database</text></g><g transform="translate(137.48046875,677 )" id="entity-Database-94c5a458-ab78-56ae-8c20-070265f95b76"><rect height="68" width="119.65625" y="0" x="0" class="er entityBox"/><text style="dominant-baseline: middle; text-anchor: middle; font-size: 12px;" transform="translate(59.828125,12)" y="0" x="0" id="text-entity-Database-94c5a458-ab78-56ae-8c20-070265f95b76" class="er entityLabel">Database</text><rect height="22" width="38.953125" y="24" x="0" class="er attributeBoxOdd"/><text style="dominant-baseline: middle; font-size: 10.2px;" transform="translate(5,35)" y="0" x="0" id="text-entity-Database-94c5a458-ab78-56ae-8c20-070265f95b76-attr-1-type" class="er entityLabel">string</text><rect height="22" width="80.703125" y="24" x="38.953125" class="er attributeBoxOdd"/><text style="dominant-baseline: middle; font-size: 10.2px;" transform="translate(43.953125,35)" y="0" x="0" id="text-entity-Database-94c5a458-ab78-56ae-8c20-070265f95b76-attr-1-name" class="er entityLabel">TemplateHash</text><rect height="22" width="38.953125" y="46" x="0" class="er attributeBoxEven"/><text style="dominant-baseline: middle; font-size: 10.2px;" transform="translate(5,57)" y="0" x="0" id="text-entity-Database-94c5a458-ab78-56ae-8c20-070265f95b76-attr-2-type" class="er entityLabel">Config</text><rect height="22" width="80.703125" y="46" x="38.953125" class="er attributeBoxEven"/><text style="dominant-baseline: middle; font-size: 10.2px;" transform="translate(43.953125,57)" y="0" x="0" id="text-entity-Database-94c5a458-ab78-56ae-8c20-070265f95b76-attr-2-name" class="er entityLabel">DatabaseConfig</text></g><rect height="14" width="26.7890625" y="138" x="183.9140625" class="er relationshipLabelBox"/><text style="text-anchor: middle; dominant-baseline: middle; font-size: 12px;" y="145" x="197.30859375" id="rel1" class="er relationshipLabel">owns</text><rect height="14" width="17.71875" y="296.51800537109375" x="91.10038757324219" class="er relationshipLabelBox"/><text style="text-anchor: middle; dominant-baseline: middle; font-size: 12px;" y="303.51800537109375" x="99.95976257324219" id="rel2" class="er relationshipLabel">has</text><rect height="14" width="17.71875" y="296.51800537109375" x="285.7980651855469" class="er relationshipLabelBox"/><text style="text-anchor: middle; dominant-baseline: middle; font-size: 12px;" y="303.51800537109375" x="294.6574401855469" id="rel3" class="er relationshipLabel">has</text><rect height="14" width="46.5546875" y="452" x="57.3828125" class="er relationshipLabelBox"/><text style="text-anchor: middle; dominant-baseline: middle; font-size: 12px;" y="459" x="80.66015625" id="rel4" class="er relationshipLabel">manages</text><rect height="14" width="21.0234375" y="457.5" x="303.4453125" class="er relationshipLabelBox"/><text style="text-anchor: middle; dominant-baseline: middle; font-size: 12px;" y="464.5" x="313.95703125" id="rel5" class="er relationshipLabel">sets</text><rect height="14" width="8.28125" y="629.4819946289062" x="95.81912994384766" class="er relationshipLabelBox"/><text style="text-anchor: middle; dominant-baseline: middle; font-size: 12px;" y="636.4819946289062" x="99.95975494384766" id="rel6" class="er relationshipLabel">is</text><rect height="14" width="8.28125" y="625.0703125" x="293.3560791015625" class="er relationshipLabelBox"/><text style="text-anchor: middle; dominant-baseline: middle; font-size: 12px;" y="632.0703125" x="297.4967041015625" id="rel7" class="er relationshipLabel">is</text></svg>